<svg width="296" height="382" viewBox="0 0 296 382" fill="none" xmlns="http://www.w3.org/2000/svg">
<path d="M0.621715 226.859L50.6619 147.402C51.3949 146.238 52.6746 145.532 54.0501 145.533L291.646 145.739C294.783 145.742 296.696 149.189 295.039 151.853L153.535 379.21C151.409 382.627 146.136 381.118 146.139 377.093L146.261 237.113C146.263 234.904 144.473 233.112 142.264 233.11L4.00296 232.99C0.856609 232.987 -1.05499 229.521 0.621715 226.859Z" fill="url(#paint0_linear_2_14)"/>
<path d="M293.812 153.145L245.098 230.645C244.183 232.101 242.584 232.984 240.865 232.984L5.61943 232.984C1.69844 232.984 -0.696793 228.676 1.37218 225.346L139.88 2.37053C142.535 -1.90277 149.127 -0.0217881 149.127 5.00885V140.484C149.127 143.245 151.366 145.484 154.127 145.484L289.579 145.484C293.512 145.484 295.905 149.815 293.812 153.145Z" fill="url(#paint1_linear_2_14)"/>
<defs>
<linearGradient id="paint0_linear_2_14" x1="116" y1="36" x2="170.5" y2="356" gradientUnits="userSpaceOnUse">
<stop stop-color="#8000FF"/>
<stop offset="0.498624" stop-color="#C04B69"/>
<stop offset="0.687682" stop-color="#E1553E"/>
<stop offset="0.875824" stop-color="#E09229"/>
</linearGradient>
<linearGradient id="paint1_linear_2_14" x1="116" y1="36" x2="170.5" y2="356" gradientUnits="userSpaceOnUse">
<stop stop-color="#8000FF"/>
<stop offset="0.498624" stop-color="#C04B69"/>
<stop offset="0.687682" stop-color="#E1553E"/>
<stop offset="0.875824" stop-color="#E09229"/>
</linearGradient>
</defs>
</svg>
