<svg fill="white" xmlns="http://www.w3.org/2000/svg" viewBox="0 0 1149.037 731.497" id="hedgehog"><path d="M400.758.061c-7.614 7.844 22.61 35.531 38.53 35.531h7.152l-8.075-4.845c-4.384-2.538-14.305-11.074-22.149-18.457-7.614-7.614-14.535-12.92-15.458-12.228zM584.641 11.597c5.076 20.073 44.99 72.446 55.142 72.446 3.461 0 2.307-2.769-5.537-13.382-5.307-7.152-17.304-24.918-26.994-39.222-16.842-24.918-25.84-32.993-22.61-19.842zM652.933 25.209c0 8.767 8.537 28.84 17.304 40.837 7.614 10.613 21.918 20.765 21.918 15.689 0-1.154-.923-2.307-1.846-2.307-2.076 0-20.073-34.608-26.763-51.45-3.922-9.69-10.613-11.536-10.613-2.769zM535.267 32.131c0 1.846 6.691 11.074 14.766 20.303 14.535 16.612 26.763 26.994 26.763 22.61 0-1.154-.923-2.769-2.076-3.691-1.154-.692-8.075-9.459-14.997-19.611-14.305-20.303-24.456-28.378-24.456-19.611zM308.471 32.592c-4.153 3.922-.923 12.228 7.614 19.842 17.996 16.381 39.453 26.533 46.374 22.149 2.307-1.384 2.307-2.076.461-2.076-1.615 0-12.228-8.075-23.995-17.996-26.763-22.61-28.609-23.995-30.455-21.918zM394.529 41.359c0 18.227 55.603 61.14 79.367 61.14 6.229 0 5.768-.692-6.691-8.306-22.61-13.382-49.604-33.685-58.603-43.837-10.382-11.536-14.074-14.074-14.074-8.998zM713.843 50.357c-1.846 4.614 1.846 10.382 21.918 35.761 9.921 12.228 19.15 24.225 20.765 26.763 2.307 3.922 2.538 2.769 1.846-7.614-1.154-13.382-10.613-29.763-28.378-48.22-9.921-10.382-14.074-12.228-16.15-6.691zM484.97 61.432c8.075 14.766 29.763 36.454 36.454 36.454 5.307 0 4.845-.692-4.845-11.074-5.768-5.999-14.997-16.381-20.303-23.072-12.459-15.227-19.15-16.612-11.305-2.307zM786.75 57.279c0 .692 2.538 9.921 5.537 20.534 2.999 10.382 7.152 30.455 9.229 44.298 2.076 13.843 4.384 25.61 4.845 26.302 2.538 2.307.923-30.455-2.076-46.374-3.461-18.227-11.767-42.452-15.458-44.529-1.154-.923-2.076-.923-2.076-.231zM842.584 81.043c-2.999 7.383-1.846 54.219 1.615 61.833l2.999 6.922 2.538-5.768c1.154-3.23 2.538-19.15 2.538-35.761.231-26.763-.231-29.993-3.922-30.686-2.076-.461-4.614.923-5.768 3.461zM263.019 84.965c0 10.152 52.604 40.376 73.599 42.452 6.46.461 11.767.231 11.767-.923s-8.075-5.999-17.996-10.844c-9.69-5.076-27.686-14.535-39.914-21.457-23.072-13.151-27.456-14.535-27.456-9.229zM147.66 86.119c0 6.229 38.991 29.301 50.989 30.455 15.227 1.384 12.92-1.154-14.074-16.381-27.225-15.227-36.915-18.919-36.915-14.074zM567.568 101.807c0 3.691 3.922 7.152 19.611 17.765 8.998 5.768 19.611 13.382 23.764 16.612 7.844 6.46 9.459 4.614 4.153-5.537-6.691-12.92-30.455-30.455-40.837-30.455-3.691 0-6.691.692-6.691 1.615zM398.451 110.806c-2.999 3.23 3.691 10.382 20.765 22.38 21.226 14.766 29.071 18.919 39.914 21.226l8.075 1.615-5.768-5.768c-7.614-7.844-55.372-40.837-58.833-40.837-1.384 0-3.461.692-4.153 1.384zM687.08 123.726c.692 2.769 9.921 13.843 20.765 24.687 10.613 10.844 22.38 23.303 26.071 27.456s6.691 6.691 6.922 5.768c.923-6.229-1.384-14.074-5.768-20.534-8.537-12.69-42.452-42.452-48.22-42.452-.692 0-.692 2.307.231 5.076zM639.09 128.802c0 1.846 6.922 8.306 15.689 14.305 8.537 5.999 16.15 12.228 17.073 13.382 1.154 1.615 1.846 1.154 1.846-.923 0-5.537-5.999-12.69-18.227-21.688-11.997-8.998-16.381-10.152-16.381-5.076zM535.498 136.185c3.461 4.384 47.528 26.302 52.604 26.302 4.384 0-18.457-17.304-32.531-24.456-5.999-2.999-13.612-5.537-17.073-5.537-5.307 0-5.768.461-2.999 3.691zM89.98 144.029c0 11.074 63.678 36.684 82.367 33.223 10.613-2.076 9.459-3.922-3.922-7.152-6.46-1.615-24.456-8.998-40.145-16.842-30.455-14.766-38.299-16.842-38.299-9.229zM231.18 144.26c.461 3.691 3.461 6.922 8.767 9.459 11.305 5.537 38.53 9.921 49.143 7.844 8.767-1.615 8.767-1.846-17.304-11.074-14.305-5.076-29.532-9.921-33.685-10.382-7.152-1.154-7.614-.692-6.922 4.153zM771.292 163.179c.692 5.537 2.538 13.151 4.153 16.842 2.307 6.229 2.769 6.229 4.384 2.076 4.614-10.844.461-28.84-6.46-28.84-2.769 0-2.999 2.076-2.076 9.921zM364.535 167.101c0 3.691 21.918 19.842 35.531 26.302 22.61 10.613 46.605 15.227 57.68 10.844 3.23-1.154 0-2.769-12.69-5.768-10.152-2.538-27.456-9.459-42.452-17.304-26.302-13.843-38.069-18.227-38.069-14.074zM853.428 175.637c-7.152 18.919 16.381 69.446 47.297 101.747 44.759 46.605 97.594 69.677 171.655 74.753l37.607 2.538-1.384 5.999c-2.769 10.844-15.227 38.069-26.071 56.295-18.919 31.839-50.297 59.987-117.436 105.208-29.071 19.38-82.828 40.606-127.587 50.066-16.15 3.461-30.686 4.153-81.905 4.384h-62.294l-.692-5.307c-1.154-7.152-7.152-9.229-11.305-3.922-9.229 12.92 9.921 43.375 47.989 75.214 6.922 5.768 15.689 14.997 19.38 20.534 6.46 9.459 6.691 9.921 2.307 12.92-7.152 5.307-27.686 4.153-40.837-2.538-32.07-16.15-49.604-32.993-86.75-82.597-14.766-19.611-23.072-29.071-25.379-28.148-1.615.692-3.691 1.154-4.153 1.154-7.383 0 32.531 54.45 59.987 82.136 16.381 16.381 44.99 35.761 60.91 41.529 13.843 4.845 30.916 4.153 39.914-2.076 4.384-2.769 8.075-7.614 8.537-10.382 1.384-8.537-10.382-25.148-32.993-47.067-11.536-11.305-23.533-24.687-26.533-29.993l-5.307-9.459 44.759 1.615c51.22 1.846 83.289-.461 116.513-8.998l22.38-5.768 14.074 8.075c17.073 9.459 53.296 21.918 63.909 21.918 20.303 0 43.606-15.227 43.606-28.148 0-7.614-4.153-10.844-28.609-23.072l-20.765-10.382 18.457-12.228c51.45-34.608 82.136-60.91 107.284-92.749 10.382-13.382 33.685-58.833 35.761-70.369 1.384-6.922 2.307-7.614 9.459-7.614 10.382 0 15.92-3.23 20.303-11.536 5.768-10.844 4.384-19.611-3.691-26.533-10.382-8.767-21.918-7.383-29.071 3.23-2.999 4.384-5.307 10.844-5.307 14.305 0 5.768-.692 6.46-6.229 5.537-3.691-.461-17.304-1.384-30.686-2.076-40.606-2.076-83.751-16.15-116.282-37.607-29.071-19.38-52.373-43.837-69.216-72.907-14.305-25.148-22.149-43.375-22.149-52.373 0-5.999-2.307-11.536-4.845-11.536-1.154 0-3.23 2.769-4.614 6.229zm96.21 374.687c1.615 2.769 32.762 18.227 36.915 18.227 1.384 0 4.153 1.846 6.229 4.153 3.461 3.691 3.461 4.614.231 9.229-8.306 11.997-28.378 15.227-51.912 8.306-15.458-4.614-43.606-17.073-43.606-19.38 0-.923 5.999-3.922 13.382-6.691 7.152-2.769 17.765-7.614 23.533-10.613 11.997-6.46 12.92-6.691 15.227-3.23zM472.973 183.02c0 3.23 2.999 4.614 14.305 6.922 5.537 1.154 11.305 2.307 13.151 2.769 7.152 2.076 4.614-5.076-2.999-8.306-8.998-3.922-24.456-4.614-24.456-1.384zM639.321 185.328c-5.768 3.691-.461 10.382 17.996 23.072 17.073 11.536 23.303 13.151 23.303 6.229 0-3.922-32.301-31.378-36.915-31.378-.692 0-2.538.923-4.384 2.076zM697.231 186.481c.461 1.846 11.997 13.843 25.61 26.533 32.993 30.686 40.837 31.378 17.304 1.384-9.459-11.997-22.61-23.995-31.147-28.378-6.922-3.691-12.69-3.461-11.767.461zM528.576 201.478c-6.922 4.384 5.999 12.459 32.993 20.765 17.765 5.537 29.301 5.999 39.453 1.615q6.922-2.999-6.922-4.614c-7.614-.923-24.687-5.768-37.838-10.844-13.382-4.845-24.225-8.998-24.225-8.998-.231 0-1.615.923-3.461 2.076zM41.529 203.554c0 2.999 3.461 3.461 43.837 8.537 33.685 3.922 34.608 4.153 34.608 1.615 0-2.769-36.915-9.921-59.295-11.305-13.151-.923-19.15-.461-19.15 1.154zM251.483 205.4c-2.538 2.769-2.307 4.153.692 7.152 7.152 7.152 56.757 10.382 65.063 4.384 3.922-2.769 3.461-3.23-5.999-4.614-5.537-.923-19.842-3.691-31.378-6.229-25.61-5.307-24.687-5.307-28.378-.692zM166.117 224.78c-2.999 2.076-2.999 2.538-.231 4.384 4.384 2.769 48.22 8.306 50.297 6.46 2.538-2.769-.923-4.384-15.92-7.383-26.071-5.307-30.686-5.768-34.146-3.461zM447.594 238.393c-9.921 2.769-6.922 8.075 5.768 9.921 16.381 2.307 61.371 2.999 67.601.923 9.921-3.23 4.845-5.307-19.611-8.075-40.376-4.384-47.759-4.614-53.757-2.769zM648.319 240.469c0 5.537 41.299 29.763 51.912 30.686 16.842 1.384 15.227-.692-11.767-15.227-28.84-15.227-40.145-19.611-40.145-15.458zM342.156 242.546c-4.845 1.846-3.461 6.922 2.307 8.537 8.306 2.076 46.374 1.615 50.066-.923 2.999-2.076 2.999-2.307 0-2.307-4.153-.231-35.761-4.153-43.837-5.537-3.23-.692-7.152-.461-8.537.231zM72.215 257.312c-8.767 2.538-9.229 3.461-3.461 6.46 2.538 1.384 12.92 1.384 28.148.231 28.378-2.538 36.915-4.153 36.915-7.152 0-2.769-51.912-2.307-61.602.461zM257.251 277.846c-2.999 4.845 15.689 11.536 42.683 14.997 7.383 1.154 11.767.461 14.997-2.076q5.537-4.153-24.225-10.613c-24.225-5.076-31.378-5.768-33.454-2.307zM34.377 290.766c-9.69 2.999-18.919 7.152-20.534 8.998-3.922 4.845-1.154 11.305 4.153 8.998 3.922-1.615 47.297-17.073 48.451-17.073.231 0 .461-1.615.461-3.461 0-5.076-11.997-4.153-32.531 2.538zM623.863 289.151c4.845 5.307 49.835 23.303 58.141 23.303 2.999 0 5.537-1.154 5.537-2.769 0-1.384-.692-2.076-1.384-1.154-.692.692-12.228-4.384-25.379-11.305-16.381-8.537-26.763-12.459-32.531-12.459-8.075 0-8.306.231-4.384 4.384zM168.194 293.996c-17.304 1.615-40.145 7.844-42.452 11.536-2.076 3.461 4.614 3.922 18.688 1.154 19.38-4.153 64.832-8.767 67.831-6.922 1.154.692 2.307 0 2.307-1.846 0-6.46-10.152-7.383-46.374-3.922zM492.123 297.918c-2.999.692-5.307 2.076-5.307 3.23 0 4.384 16.15 8.998 36.223 10.382 24.687 1.846 44.529-1.846 53.296-9.69l6.229-5.537-8.075 1.846c-9.69 1.846-55.142 2.076-68.062.231-5.076-.692-11.536-.923-14.305-.461zM340.31 309.916c-.923 1.615-.923 3.461-.231 4.384 4.614 4.384 67.831 6.691 75.445 2.769 5.768-3.23 5.537-5.768-.692-5.999-2.999 0-20.534-.923-38.991-2.076-25.379-1.384-34.146-1.154-35.531.923zM440.672 332.526c-13.382 1.384-18.688 2.999-17.304 5.307 1.846 3.23 25.61 2.769 36.915-.231 7.844-2.307 8.537-2.999 4.614-4.614-4.845-1.846-10.152-1.846-24.225-.461zM60.218 345.446c-17.765 4.614-26.763 10.382-22.841 14.305.692.923 12.69-1.615 26.533-5.537s27.225-7.152 29.532-7.152q4.614-.231.231-3.461c-5.999-4.384-10.152-4.153-33.454 1.846zM208.8 350.291c-21.918 3.461-41.299 9.459-44.99 14.305-2.307 2.538-1.846 3.23 2.538 3.23 2.999 0 11.305-1.615 18.227-3.461s19.38-4.614 27.686-5.768c23.995-3.691 36.915-7.152 35.531-9.459-1.615-2.769-16.381-2.307-38.991 1.154zM293.013 355.829c0 7.844 23.072 14.305 50.989 14.305 15.227 0 27.456-3.23 27.456-7.383 0-.923-5.999-1.846-13.151-1.846-7.383-.231-21.688-1.615-31.839-3.461-20.995-3.922-33.454-4.384-33.454-1.615z"></path><path d="M828.28 363.673c-9.229 15.458-8.998 29.993.461 37.146 11.997 8.998 24.918-1.384 28.378-22.61 1.846-12.92-4.845-21.918-16.381-21.918-6.46 0-8.767 1.384-12.459 7.383zM607.02 360.443c-5.076 3.691-1.154 9.229 8.306 11.767 20.073 5.537 62.986 1.384 62.986-6.229 0-3.922-66.216-8.767-71.292-5.537zM492.584 376.132c-12.69 2.076-28.148 2.769-39.684 2.076-15.689-1.154-19.15-.692-19.15 1.846 0 7.152 6.922 9.229 28.378 8.998 21.226-.231 64.14-8.998 69.446-14.305 3.23-3.23-13.151-2.538-38.991 1.384zM88.827 399.434c-11.305 2.307-56.526 17.073-66.678 21.457-12.228 5.537-19.842 11.997-19.842 17.304 0 2.769 2.769 2.076 13.382-2.999 7.152-3.691 29.071-12.228 48.22-18.919 19.38-6.691 37.146-13.612 39.222-15.227 3.691-2.769 3.461-2.999-2.769-2.999-3.691.231-8.998.692-11.536 1.384zM253.79 414.2c-29.993 8.075-46.374 14.074-48.451 18.227-5.999 11.074 0 14.997 11.074 7.383 3.461-2.307 14.535-7.152 24.687-10.613 34.608-11.997 38.069-13.382 38.069-15.458 0-2.538-14.766-2.307-25.379.461zM382.993 423.429c-44.99 11.997-69.216 22.61-69.216 29.763 0 2.538.692 4.614 1.384 4.614s9.229-3.461 18.919-7.844c9.921-4.153 27.686-10.844 39.914-14.997 12.228-3.922 24.225-8.767 26.533-10.613 4.153-2.999 3.922-3.23-2.538-3.23-3.691.231-10.613 1.154-14.997 2.307zM522.577 427.582c-7.844 3.23-44.298 7.383-59.756 6.691-15.458-.461-21.226 1.384-15.227 5.076 11.997 7.383 51.681 4.153 71.292-5.768 14.074-6.922 16.612-11.074 3.691-5.999zM619.479 432.658c-5.076.923-16.612 1.846-25.61 1.846-16.15.231-30.916 3.461-30.916 7.152 0 7.844 57.68 2.538 64.832-5.999 3.691-4.614 2.307-5.076-8.306-2.999zM130.817 439.118c-22.38 7.383-31.608 12.459-31.608 17.535 0 5.307 4.614 6.46 8.998 2.307 2.307-2.076 12.92-7.152 23.533-11.305 10.613-4.153 22.61-9.229 26.302-11.305l6.922-3.691h-6.922c-3.691 0-15.92 2.999-27.225 6.46zM53.065 479.494c-26.071 9.69-53.065 29.993-53.065 40.145 0 5.307 5.537 4.845 7.844-.692 2.999-8.306 62.755-42.683 66.908-38.761.692.923 1.384.231 1.384-1.154 0-3.691-12.69-3.23-23.072.461zM251.483 484.339c-15.92 8.767-29.532 20.534-26.071 22.61 2.538 1.615 7.152-.923 29.301-15.689 25.148-16.842 23.303-20.995-3.23-6.922zM399.143 485.492c-1.846 1.154-13.843 5.307-26.533 9.229-27.456 8.306-34.608 11.767-34.608 16.15 0 8.998 44.529-5.076 59.756-18.688 7.152-6.229 7.844-10.844 1.384-6.691zM577.95 488.953c-16.381 5.768-33.454 16.15-35.3 21.226-1.384 4.845 4.153 3.461 20.073-4.845 8.306-4.153 22.841-10.382 32.07-13.843 8.998-3.461 16.612-6.922 16.612-7.383 0-2.769-19.38 0-33.454 4.845zM146.968 492.645c-11.997 4.845-21.226 10.152-27.686 16.612-8.998 8.998-9.459 9.459-4.614 10.382 5.537.923 55.603-24.456 60.679-30.686 4.845-5.768-8.306-4.153-28.378 3.691zM475.972 517.562c-11.536 7.383-32.301 18.227-46.144 24.225-27.917 12.228-33.916 16.381-27.456 18.919 5.999 2.307 20.303-2.769 45.221-15.458 27.686-14.074 62.063-41.76 51.45-41.299-1.154.231-11.305 6.229-23.072 13.612zM271.786 535.789c-21.918 13.843-24.918 16.381-24.918 20.303 0 5.307 6.46 3.691 19.15-4.614 12.459-7.844 29.301-22.38 29.301-25.148 0-3.691-7.152-.923-23.533 9.459zM534.806 566.244c-11.536 11.074-13.843 14.305-11.305 16.612 2.307 2.538 5.537.231 16.612-11.536 7.383-7.844 13.612-15.458 13.612-16.612 0-5.076-5.537-1.615-18.919 11.536zM69.908 568.551c-6.46 3.691-18.688 9.69-26.994 13.151-8.306 3.23-15.227 6.922-15.227 7.844 0 .692 1.615 2.769 3.461 4.384 6.691 5.537 40.376-10.152 49.374-22.841 8.537-11.767 6.229-12.228-10.613-2.538zM159.427 579.856c-22.149 11.305-33.454 19.842-31.147 23.533 1.615 2.999 14.074-2.769 32.762-14.997 29.763-19.842 28.84-24.456-1.615-8.537zM316.084 606.62c-31.839 20.534-45.913 32.301-42.221 35.992 3.23 3.23 7.614.923 35.3-19.38 22.841-16.842 36.915-28.84 36.915-32.07 0-3.461-3.23-1.615-29.993 15.458zM562.261 596.699c-2.769 7.383-30.224 43.375-40.606 53.296-6.46 6.229-11.767 12.228-11.767 13.382 0 4.153 6.691 1.846 16.15-5.537 13.843-10.613 46.605-63.909 39.453-63.909-1.154 0-2.538 1.384-3.23 2.769zM251.483 605.697c-6.922 5.076-19.842 13.612-28.84 18.688-8.767 5.076-20.534 12.92-25.84 17.304-17.765 14.305-9.229 20.765 8.998 6.922 5.537-4.153 16.612-12.228 24.918-18.227 15.458-11.074 34.608-28.84 34.608-32.301 0-2.538.231-2.769-13.843 7.614zM409.525 600.621c-16.842 7.844-30.224 25.84-27.225 36.915 1.615 6.691 5.768 5.076 8.306-3.461 3.461-10.613 12.92-21.688 25.148-29.301 5.999-3.691 11.074-7.383 11.074-7.614 0-2.307-8.998-.461-17.304 3.461zM481.048 625.308c-11.305 9.69-26.302 21.457-33.223 25.84-18.688 11.767-24.456 21.226-13.382 21.226 14.766 0 57.91-34.608 68.293-54.911 7.383-14.305 2.076-12.459-21.688 7.844zM78.444 622.309c-5.768 2.538-19.611 7.844-31.147 11.767-13.612 4.614-20.765 8.306-20.765 10.613 0 6.229 15.689 3.461 35.992-6.46 25.61-12.228 39.684-26.533 15.92-15.92zM122.05 656.224c-17.304 8.998-41.068 34.608-32.301 34.608 1.154 0 11.767-7.844 23.764-17.304 11.767-9.459 22.841-17.073 24.456-17.304 1.384 0 2.769-1.154 2.769-2.307 0-3.691-9.69-2.538-18.688 2.307zM360.844 668.683c-22.841 10.613-40.145 31.378-40.145 48.22 0 7.152.692 8.767 3.922 8.075 2.307-.461 4.614-3.691 5.307-7.614 3.23-15.458 22.149-39.453 36.915-46.836 13.382-6.46 7.844-8.306-5.999-1.846zM194.496 689.448c-8.767 6.691-20.765 15.227-26.302 18.919-20.534 13.151-26.302 21.226-13.382 18.457 13.382-2.538 57.449-38.991 57.449-47.528 0-3.461-.231-3.461-17.765 10.152zM261.866 689.909c-7.614 7.152-20.303 17.073-28.148 22.149-12.459 8.075-19.38 16.15-16.381 19.38.692.461 6.46-1.846 13.151-5.307 13.843-6.691 40.145-30.224 45.452-40.145 6.691-12.92 3.23-11.997-14.074 3.922z"></path></svg>
